<svg width="596" height="439" viewBox="0 0 596 439" fill="none" xmlns="http://www.w3.org/2000/svg">
<g clip-path="url(#clip0_44_1862)">
<path d="M156.324 198.126C155.012 198.126 153.945 199.124 153.945 200.352V218.157C153.945 219.384 155.012 220.383 156.324 220.383C157.636 220.383 158.703 219.384 158.703 218.157V200.352C158.703 199.124 157.636 198.126 156.324 198.126Z" fill="#3F3D56"/>
<path d="M426.907 0H212.924C188.658 0 168.987 18.4044 168.987 41.1075V394.88C168.987 417.583 188.658 435.988 212.924 435.988H426.907C451.173 435.988 470.844 417.583 470.844 394.88V41.1075C470.844 18.4044 451.173 0 426.907 0Z" fill="white"/>
<path d="M426.907 439H212.924C188.124 439 167.946 420.123 167.946 396.919V43.1471C167.946 19.9438 188.124 1.06616 212.924 1.06616H426.907C451.708 1.06616 471.885 19.9438 471.885 43.1471V396.919C471.885 420.123 451.708 439 426.907 439ZM212.924 3.01301C189.271 3.01301 170.027 21.017 170.027 43.1471V396.919C170.027 419.05 189.271 437.053 212.924 437.053H426.907C450.561 437.053 469.804 419.05 469.804 396.919V43.1471C469.804 21.017 450.561 3.01301 426.907 3.01301H212.924Z" fill="#3F3D56"/>
<path d="M442.407 86.2027H356.397C352.749 86.2027 349.781 83.4258 349.781 80.0127C349.781 76.5995 352.749 73.8226 356.397 73.8226H442.407C446.055 73.8226 449.023 76.5995 449.023 80.0127C449.023 83.4258 446.055 86.2027 442.407 86.2027Z" fill="#E6E6E6"/>
<path d="M361.719 134.881H278.113C276.005 134.881 274.29 133.276 274.29 131.304C274.29 129.332 276.005 127.728 278.113 127.728H361.719C363.826 127.728 365.541 129.332 365.541 131.304C365.541 133.276 363.826 134.881 361.719 134.881Z" fill="#FDAF77"/>
<path d="M243.648 15.3344H195.721C195.597 15.3344 195.496 15.4288 195.496 15.5452V20.9263C195.496 21.0428 195.597 21.1372 195.721 21.1372H243.648C243.772 21.1372 243.873 21.0428 243.873 20.9263V15.5452C243.873 15.4288 243.772 15.3344 243.648 15.3344Z" fill="#E6E6E6"/>
<path d="M404.328 21.1372C407.069 21.1372 409.29 19.0588 409.29 16.4949C409.29 13.9311 407.069 11.8527 404.328 11.8527C401.588 11.8527 399.367 13.9311 399.367 16.4949C399.367 19.0588 401.588 21.1372 404.328 21.1372Z" fill="#E6E6E6"/>
<path d="M417.973 21.1372C420.714 21.1372 422.935 19.0588 422.935 16.4949C422.935 13.9311 420.714 11.8527 417.973 11.8527C415.233 11.8527 413.012 13.9311 413.012 16.4949C413.012 19.0588 415.233 21.1372 417.973 21.1372Z" fill="#E6E6E6"/>
<path d="M431.618 21.1372C434.359 21.1372 436.58 19.0588 436.58 16.4949C436.58 13.9311 434.359 11.8527 431.618 11.8527C428.878 11.8527 426.657 13.9311 426.657 16.4949C426.657 19.0588 428.878 21.1372 431.618 21.1372Z" fill="#E6E6E6"/>
<path d="M212.403 154.025C212.403 154.668 212.955 155.184 213.641 155.184H426.19C426.876 155.184 427.428 154.668 427.428 154.025C427.428 153.383 426.876 152.867 426.19 152.867H213.641C212.955 152.867 212.403 153.383 212.403 154.025Z" fill="#3F3D56"/>
<path d="M380.975 317.859C380.975 318.502 381.527 319.018 382.214 319.018H594.762C595.449 319.018 596 318.502 596 317.859C596 317.217 595.449 316.701 594.762 316.701H382.214C381.527 316.701 380.975 317.217 380.975 317.859Z" fill="#3F3D56"/>
<path d="M405.807 245.07H278.253C276.145 245.07 274.43 243.465 274.43 241.493C274.43 239.521 276.145 237.917 278.253 237.917H405.807C407.915 237.917 409.629 239.521 409.629 241.493C409.629 243.465 407.915 245.07 405.807 245.07Z" fill="#FDAF77"/>
<path d="M239.566 249.812C244.737 249.812 248.929 245.89 248.929 241.052C248.929 236.213 244.737 232.291 239.566 232.291C234.394 232.291 230.202 236.213 230.202 241.052C230.202 245.89 234.394 249.812 239.566 249.812Z" fill="#FDAF77"/>
<path d="M238.525 255.653V253.706C246.27 253.706 252.571 247.811 252.571 240.565C252.571 233.319 246.27 227.424 238.525 227.424V225.477C247.417 225.477 254.652 232.245 254.652 240.565C254.652 248.885 247.417 255.653 238.525 255.653Z" fill="#3F3D56"/>
<path d="M126.997 205.72C130.816 202.084 135.918 200.98 138.391 203.254C140.865 205.529 139.773 210.32 135.951 213.958C134.446 215.43 132.586 216.544 130.526 217.206L114.134 232.424L106.665 225.075L123.618 210.853C124.29 208.914 125.448 207.154 126.997 205.72Z" fill="#FFB6B6"/>
<path d="M74.5735 193.159L91.7599 228.83L119.204 214.932L129.026 219.809C129.026 219.809 106.591 254.9 91.2296 250.906C75.8684 246.911 48.5908 210.69 53.5055 199.51C58.4203 188.331 74.5735 193.159 74.5735 193.159Z" fill="#E6E6E6"/>
<path d="M0 437.806C0 438.255 0.385122 438.615 0.864703 438.615H530.77C531.249 438.615 531.634 438.255 531.634 437.806C531.634 437.357 531.249 436.997 530.77 436.997H0.864703C0.385122 436.997 0 437.357 0 437.806Z" fill="#3F3D56"/>
<path d="M158.634 263.412C184.677 263.412 205.79 244.075 205.79 220.222C205.79 196.369 184.677 177.033 158.634 177.033C132.59 177.033 111.478 196.369 111.478 220.222C111.478 244.075 132.59 263.412 158.634 263.412Z" fill="#FDAF77"/>
<path d="M67.0375 430.896L79.5692 430.895L85.5306 385.671L67.035 385.672L67.0375 430.896Z" fill="#FFB6B6"/>
<path d="M109.973 430.63C110.363 431.245 110.569 433.229 110.569 433.944C110.569 436.142 108.664 437.924 106.315 437.924H67.5062C65.9037 437.924 64.6046 436.708 64.6046 435.209V433.697C64.6046 433.697 62.6847 429.154 66.6374 423.554C66.6374 423.554 71.55 427.939 78.8906 421.071L81.0554 417.402L96.7248 428.123L105.41 429.124C107.31 429.342 108.995 429.09 109.973 430.63Z" fill="#004275"/>
<path d="M76.5202 195.448L76.7737 179.634L66.3505 173.555L55.0165 186.526L76.5202 195.448Z" fill="#FFB6B6"/>
<path opacity="0.1" d="M76.5202 195.448L77.1948 180.028L66.3505 173.555L70.0348 192.638L76.5202 195.448Z" fill="black"/>
<path d="M101.834 300.017L84.5654 409.957H62.9002L65.781 347.2L67.2972 314.202L62.9002 298.496C62.9002 298.496 60.8954 295.004 59.2064 290.772C57.3027 285.996 55.7991 280.271 58.0314 277.556C58.8527 276.555 60.988 275.814 63.8899 275.262C65.6631 274.923 67.7268 274.659 69.9548 274.455C82.767 273.268 100.991 274.009 100.991 274.009L101.455 288.313L101.711 296.301L101.834 300.017Z" fill="#004275"/>
<path d="M44.9625 425.519L57.361 427.224L70.29 383.292L51.9909 380.776L44.9625 425.519Z" fill="#FFB6B6"/>
<path d="M87.4823 431.099C87.7728 431.76 87.668 433.752 87.5568 434.459C87.2151 436.634 85.0542 438.137 82.7301 437.817L44.3336 432.536C42.7482 432.318 41.6518 430.939 41.8849 429.455L42.12 427.96C42.12 427.96 40.9269 423.203 45.7081 418.201C45.7081 418.201 49.8868 423.207 58.2171 417.412L60.9292 414.076L74.7651 426.816L83.2026 428.988C85.0485 429.463 86.7547 429.442 87.4823 431.099Z" fill="#004275"/>
<path d="M102.105 281.682L99.7369 300.765L86.8203 340.98L65.5575 407.187L44.1251 404.241L63.3604 310.104L61.4558 293.962C61.4558 293.962 60.8356 292.357 60.1246 290.008C58.7133 285.361 56.9432 277.793 58.8906 273.933C59.1535 273.408 59.4836 272.953 59.892 272.584C60.6579 271.889 62.2146 271.467 64.3003 271.243C73.0179 270.321 90.9713 272.958 98.9601 274.252L102.105 281.682Z" fill="#004275"/>
<path d="M57.3996 183.181L78.4584 192.638C78.4584 192.638 100.781 254.504 100.781 257.656C100.781 260.809 107.098 262.779 103.308 266.325C99.5171 269.872 110.363 272.875 104.519 275.708C98.6748 278.541 62.2183 294.036 58.1645 292.639C46.9839 288.785 58.6383 274.624 58.6383 274.624C58.6383 274.624 50.2396 268.295 51.5032 265.143C52.7667 261.991 43.922 201.701 43.922 201.701L57.3996 183.181Z" fill="#E6E6E6"/>
<path d="M121.568 237.694C126.794 236.249 131.827 237.601 132.809 240.713C133.791 243.826 130.351 247.518 125.122 248.963C123.042 249.567 120.838 249.696 118.694 249.339L96.4668 255.198L93.7503 245.381L115.95 240.647C117.544 239.257 119.47 238.245 121.568 237.694Z" fill="#FFB6B6"/>
<path d="M82.2541 202.902L78.7704 241.894L109.975 242.208L116.032 250.933C116.032 250.933 78.2094 271.422 66.8524 260.953C55.4955 250.483 50.4423 206.427 60.5395 198.886C70.6368 191.345 82.2541 202.902 82.2541 202.902Z" fill="#E6E6E6"/>
<path d="M76.0812 184.222C86.0443 184.222 94.121 176.665 94.121 167.344C94.121 158.022 86.0443 150.466 76.0812 150.466C66.1181 150.466 58.0414 158.022 58.0414 167.344C58.0414 176.665 66.1181 184.222 76.0812 184.222Z" fill="#FFB6B6"/>
<path d="M66.3511 167.41C66.3511 167.41 69.192 163.025 70.7545 160.765C72.317 158.506 72.317 155.196 72.317 155.196C72.317 155.196 86.8057 154.918 91.6353 158.772C96.4648 162.626 99.8739 148.406 95.1864 143.489C95.1864 143.489 93.1978 145.615 93.6239 146.412L94.05 147.21C94.05 147.21 91.6353 138.173 84.675 136.445C84.675 136.445 80.8031 138.316 81.8868 139.374C82.9705 140.432 73.5954 132.99 70.7545 137.375C70.7545 137.375 63.7943 137.242 64.6465 139.635L64.2204 141.097C64.2204 141.097 58.2545 139.369 57.8283 143.489C57.8283 143.489 59.959 143.489 61.0954 144.552C62.2317 145.615 56.976 148.672 56.976 148.672C56.976 148.672 50.8681 164.354 59.1067 170.733C59.1067 170.733 59.1778 163.091 62.4448 164.952C65.7119 166.812 66.3511 167.41 66.3511 167.41Z" fill="#004275"/>
<path d="M83.5188 177.378L82.871 178.972L87.729 179.105L88.0529 177.643L83.5188 177.378Z" fill="#004275"/>
<path d="M88.3767 171.663C88.3767 171.663 81.0898 169.802 76.7176 175.384L75.746 176.447C75.746 176.447 66.5159 166.746 67.3255 163.158L65.3823 163.29L63.4391 172.593C63.4391 172.593 69.5926 182.561 78.175 182.959C78.175 182.959 86.4335 184.82 88.2148 181.63C89.9961 178.441 93.0628 173.738 93.0628 173.738L88.3767 171.663ZM87.0513 180.567H82.2233C81.0898 180.567 78.175 176.713 78.175 176.713C79.7943 174.321 84.6523 174.188 84.6523 174.188H89.9278L90.3199 175.65L87.0513 180.567Z" fill="#004275"/>
<path d="M440.031 432.18L432.11 430.578L434.943 401.232L446.633 403.596L440.031 432.18Z" fill="#A0616A"/>
<path d="M412.932 426.526C412.595 426.865 412.175 428.093 412.071 428.545C411.75 429.934 412.694 431.303 414.179 431.604L438.709 436.562C439.721 436.767 440.72 436.165 440.939 435.217L441.159 434.262C441.159 434.262 443.036 431.635 441.355 427.591C441.355 427.591 437.61 429.734 433.973 424.455L433.14 421.86L421.671 426.635L416.035 426.157C414.802 426.053 413.774 425.678 412.932 426.526Z" fill="#004275"/>
<path d="M425.863 429.935L419.255 425.546L434.201 399.61L443.954 406.087L425.863 429.935Z" fill="#A0616A"/>
<path d="M403.328 414.761C402.876 414.949 401.973 415.923 401.687 416.3C400.808 417.459 401.1 419.065 402.339 419.888L422.804 433.477C423.65 434.038 424.821 433.852 425.421 433.061L426.025 432.264C426.025 432.264 428.855 430.54 429.011 426.203C429.011 426.203 424.666 426.796 423.542 420.603L423.868 417.911L411.316 418.078L406.336 415.564C405.246 415.014 404.459 414.291 403.328 414.761Z" fill="#004275"/>
<path d="M521.06 284.845C521.06 284.845 533.383 300.52 508.737 318.143L458.419 303.1L476.39 268.032L492.307 259.866L521.06 284.845Z" fill="#004275"/>
<path d="M458.419 303.1L438.908 338.648L426.586 412.626L441.989 413.587L457.393 343.452L484.605 305.502L465.608 297.335" fill="#004275"/>
<path d="M508.737 306.977V318.143L473.823 354.02C473.823 354.02 473.823 380.921 460.473 393.411L445.07 415.509L431.72 408.783L451.231 344.412L486.146 302.139L508.737 306.977Z" fill="#004275"/>
<path d="M483.927 196.277L489.221 219.738L509.407 215.122C509.407 215.122 499.429 195.706 501.414 188.014L483.927 196.277Z" fill="#A0616A"/>
<path opacity="0.1" d="M483.927 196.277L489.221 219.738L509.407 215.122C509.407 215.122 499.429 195.706 501.414 188.014L483.927 196.277Z" fill="black"/>
<path d="M503.089 199.818L487.686 206.543C487.686 206.543 479.762 211.075 479.616 214.093C479.471 217.112 480.498 231.523 480.498 231.523C480.498 231.523 474.336 237.288 478.444 248.817L476.39 268.032L522.6 291.09L518.493 250.738L520.547 213.269L503.089 199.818Z" fill="#E6E6E6"/>
<path d="M516.916 309.154C515.112 313.026 511.516 315.293 508.882 314.219C506.249 313.145 505.577 309.136 507.382 305.263C508.08 303.707 509.166 302.33 510.55 301.247L518.413 284.934L526.517 288.549L517.905 304.247C517.999 305.933 517.66 307.616 516.916 309.154Z" fill="#A0616A"/>
<path d="M508.737 215.671C508.737 215.671 520.033 208.945 524.141 216.631C528.248 224.317 537.49 263.709 537.49 263.709L524.141 301.178L511.818 296.374L522.6 256.049L508.737 215.671Z" fill="#E6E6E6"/>
<path d="M450.844 303.106C447.643 306.084 443.406 306.952 441.381 305.046C439.356 303.139 440.31 299.181 443.512 296.203C444.774 294.997 446.326 294.091 448.039 293.561L461.773 281.105L467.883 287.26L453.695 298.885C453.119 300.485 452.141 301.932 450.844 303.106Z" fill="#A0616A"/>
<path d="M480.051 213.379C480.051 213.379 499.744 212.625 500.536 221.186C501.329 229.748 487.866 267.949 487.866 267.949L460.701 298.181L451.137 289.468L477.039 255.695L480.051 213.379Z" fill="#E6E6E6"/>
<path d="M536.913 314.838L410.987 295.835C408.906 295.521 407.486 293.682 407.821 291.735C408.157 289.788 410.123 288.46 412.204 288.774L538.131 307.777C540.211 308.091 541.631 309.93 541.295 311.877C540.96 313.823 538.994 315.152 536.913 314.838Z" fill="#FDAF77"/>
<path d="M373.476 294.865C378.648 294.865 382.84 290.943 382.84 286.105C382.84 281.266 378.648 277.344 373.476 277.344C368.305 277.344 364.113 281.266 364.113 286.105C364.113 290.943 368.305 294.865 373.476 294.865Z" fill="#FDAF77"/>
<path d="M369.964 300.365L370.295 298.443C377.941 299.596 385.165 294.716 386.399 287.562C387.632 280.408 382.415 273.649 374.769 272.496L375.1 270.574C383.879 271.898 389.869 279.658 388.453 287.872C387.037 296.085 378.743 301.689 369.964 300.365Z" fill="#3F3D56"/>
<path d="M485.946 201.263C494.511 201.263 501.455 194.767 501.455 186.753C501.455 178.74 494.511 172.244 485.946 172.244C477.381 172.244 470.437 178.74 470.437 186.753C470.437 194.767 477.381 201.263 485.946 201.263Z" fill="#A0616A"/>
<path d="M495.111 186.753C495.111 186.753 485.429 178.531 479.225 181.433C473.022 184.335 469.92 186.27 469.92 186.27C469.92 186.27 464.751 179.015 472.505 172.727C472.505 172.727 456.722 166.276 468.232 156.201C479.742 146.126 490.082 149.995 490.082 149.995C490.082 149.995 504.039 155.799 494.217 167.407C494.217 167.407 508.527 175.897 501.113 189.79C501.113 189.79 500.421 180.949 498.353 183.368C496.285 185.786 495.111 186.753 495.111 186.753Z" fill="#004275"/>
<path d="M174.836 236.483C168.907 222.845 162.978 209.208 157.049 195.57C156.231 193.686 153.665 193.619 152.866 195.57C147.008 209.868 143.18 224.788 141.34 239.999C141.027 242.591 145.367 242.57 145.678 239.999C146.398 234.047 147.467 228.138 148.84 222.293C153.725 222.533 158.651 222.02 163.365 220.799C165.794 226.387 168.224 231.974 170.653 237.562C171.691 239.95 175.889 238.906 174.836 236.483ZM149.824 218.281C151.285 212.685 153.036 207.156 155.069 201.715L161.718 217.009C157.823 217.965 153.841 218.391 149.824 218.281Z" fill="white"/>
<path d="M183.197 239.894C185.604 239.894 187.556 238.068 187.556 235.815C187.556 233.563 185.604 231.737 183.197 231.737C180.789 231.737 178.837 233.563 178.837 235.815C178.837 238.068 180.789 239.894 183.197 239.894Z" fill="white"/>
<path d="M137.421 203.864C139.828 203.864 141.78 202.038 141.78 199.786C141.78 197.533 139.828 195.707 137.421 195.707C135.013 195.707 133.061 197.533 133.061 199.786C133.061 202.038 135.013 203.864 137.421 203.864Z" fill="white"/>
</g>
<defs>
<clipPath id="clip0_44_1862">
<rect width="596" height="439" fill="white"/>
</clipPath>
</defs>
</svg>
