<svg width="540" height="449" viewBox="0 0 540 449" fill="none" xmlns="http://www.w3.org/2000/svg">
<g clip-path="url(#clip0_94_1587)">
<path d="M133.287 409.699L134.386 433.175L134.386 433.176C134.571 437.144 133.194 441.024 130.559 443.962C127.923 446.901 124.244 448.658 120.331 448.846L119.852 448.869L118.054 410.432L133.287 409.699Z" fill="#2F2E41"/>
<path d="M462.441 370.027C451.415 391.847 437.429 412.949 419.733 432.048C419.34 432.48 418.943 432.9 418.543 433.328L376.616 413.201C376.873 412.769 377.154 412.284 377.456 411.754C395.466 380.507 504.183 189.9 500.748 146.73C501.148 150.291 514.034 268.038 462.441 370.027Z" fill="#E6E6E6"/>
<path d="M427.821 435.931C427.235 436.269 426.633 436.601 426.027 436.921L394.575 421.822C395.015 421.506 395.527 421.132 396.116 420.711C405.752 413.696 434.404 392.648 462.441 370.027C492.57 345.718 521.994 319.598 526.363 307.131C525.476 309.99 497.899 396.894 427.821 435.931Z" fill="#E6E6E6"/>
<path d="M52.3192 447.932C79.1268 447.932 100.859 425.895 100.859 398.712C100.859 371.529 79.1268 349.492 52.3192 349.492C25.5117 349.492 3.77991 371.529 3.77991 398.712C3.77991 425.895 25.5117 447.932 52.3192 447.932Z" fill="#004275"/>
<path d="M71.7625 378.057H32.876C31.1577 378.059 29.5103 378.752 28.2953 379.984C27.0803 381.216 26.3968 382.887 26.3949 384.629V412.794C26.3968 414.537 27.0803 416.207 28.2953 417.439C29.5103 418.671 31.1577 419.364 32.876 419.366H71.7625C73.4808 419.365 75.1282 418.671 76.3432 417.439C77.5583 416.207 78.2417 414.537 78.2436 412.794V384.629C78.2417 382.887 77.5582 381.216 76.3432 379.984C75.1282 378.752 73.4808 378.059 71.7625 378.057ZM71.7625 381.813C71.9946 381.813 72.2257 381.844 72.4504 381.904L52.3237 398.184L32.3148 381.87C32.4994 381.832 32.6874 381.812 32.8759 381.813H71.7625ZM71.7625 415.611H32.876C32.1396 415.61 31.4336 415.313 30.9128 414.785C30.3921 414.257 30.0992 413.541 30.0984 412.794V384.882L51.159 402.053C51.4869 402.32 51.8949 402.466 52.3157 402.467C52.7365 402.468 53.145 402.323 53.474 402.057L74.5401 385.017V412.794C74.5393 413.541 74.2464 414.257 73.7257 414.785C73.2049 415.313 72.4989 415.61 71.7625 415.611Z" fill="white"/>
<path d="M239.644 327.651L250.504 327.742C251.603 327.751 252.691 327.517 253.692 327.056C254.692 326.595 255.582 325.918 256.298 325.073C257.014 324.228 257.54 323.234 257.839 322.162C258.137 321.089 258.202 319.964 258.027 318.863C257.839 317.679 257.38 316.556 256.686 315.585C255.992 314.614 255.084 313.821 254.032 313.271C252.981 312.721 251.818 312.429 250.635 312.418C249.452 312.407 248.284 312.678 247.223 313.208L236.981 318.333L201.95 326.255L186.942 310.696L178.321 325.093L198.573 340.959L239.644 327.651Z" fill="#FFB8B8"/>
<path d="M237.608 441.434L224.812 443.929C216.072 415.992 206.602 389.535 206.603 369.072C194.234 383.031 178.895 391.017 160.833 393.525L162.801 362.584L177.566 354.599L200.163 344.024C202.141 343.098 204.276 342.563 206.452 342.446C210.682 342.221 214.845 343.59 218.14 346.29C221.435 348.99 223.628 352.831 224.297 357.073L237.608 441.434Z" fill="#2F2E41"/>
<path d="M176.336 389.783L171.236 393.713C169.043 395.403 166.452 396.482 163.721 396.843C160.989 397.204 158.212 396.835 155.665 395.771C141.058 384.668 130.68 387.944 121.274 404.702C109.992 391.791 107.209 373.143 117.278 353.851L173.137 355.099L184.456 351.605L176.336 389.783Z" fill="#2F2E41"/>
<path d="M157.733 447.603C154.532 448.602 151.087 448.426 148 447.108C144.914 445.789 142.384 443.412 140.853 440.392C135.833 435.908 131.598 429.489 127.924 421.683C125.288 415.957 123.025 410.062 121.148 404.036C118.606 396.074 122.857 387.377 130.768 384.995C131.003 384.924 131.241 384.857 131.482 384.794C142.044 382.045 152.889 388.222 156.499 398.655L166.996 428.992C167.617 430.784 167.882 432.682 167.779 434.578C167.676 436.475 167.205 438.332 166.394 440.044C165.582 441.756 164.447 443.289 163.051 444.556C161.656 445.822 160.028 446.798 158.26 447.427C158.086 447.489 157.91 447.548 157.733 447.603Z" fill="#2F2E41"/>
<path opacity="0.2" d="M126.136 418.229C126.136 418.229 138.44 432.202 140.901 440.187L126.136 418.229Z" fill="black"/>
<path d="M78.4177 352.283L74.2999 362.474C73.8832 363.505 73.6934 364.616 73.7436 365.729C73.7939 366.842 74.083 367.931 74.5908 368.919C75.0986 369.908 75.813 370.772 76.6839 371.451C77.5549 372.131 78.5616 372.61 79.6338 372.854C80.7878 373.117 81.9865 373.102 83.1336 372.81C84.2807 372.518 85.3441 371.956 86.2383 371.171C87.1324 370.386 87.8323 369.399 88.2817 368.29C88.731 367.18 88.9172 365.979 88.8254 364.784L87.9381 353.237L93.6995 317.314L113.521 308.966L103.541 295.501L81.491 308.673L78.4177 352.283Z" fill="#FFB8B8"/>
<path d="M176.828 353.851C162.687 377.936 134.497 387.263 110.353 368.403C114.6 354.252 128.313 315.143 119.454 313.646C100.645 321.644 100.618 302.865 97.0996 293.466L139.917 277.497L163.048 283.984L167.789 285.69C170.875 286.801 173.551 288.843 175.459 291.541C177.366 294.24 178.412 297.467 178.457 300.787C168.741 315.021 161.548 330.205 176.828 353.851Z" fill="#004275"/>
<path d="M182.241 334.388L165.262 320.165L170.922 286.979L194.053 311.931L182.241 334.388Z" fill="#004275"/>
<path d="M463.978 106.404H461.551V39.0067C461.551 28.6615 457.498 18.74 450.284 11.4248C443.07 4.10963 433.286 0 423.084 0H282.267C272.065 0 262.28 4.10963 255.066 11.4248C247.852 18.74 243.799 28.6615 243.799 39.0067V408.755C243.799 419.1 247.852 429.021 255.066 436.337C262.28 443.652 272.065 447.761 282.267 447.761H423.083C433.285 447.761 443.07 443.652 450.284 436.337C457.498 429.021 461.55 419.1 461.55 408.755V154.379H463.977L463.978 106.404Z" fill="#3F3D56"/>
<path d="M424.636 10.1472H406.254C407.1 12.2489 407.423 14.5291 407.195 16.7872C406.967 19.0452 406.194 21.2117 404.946 23.0956C403.697 24.9796 402.011 26.5233 400.035 27.5907C398.06 28.658 395.856 29.2163 393.617 29.2162H312.945C310.707 29.216 308.503 28.6577 306.528 27.5904C304.553 26.5231 302.867 24.9796 301.618 23.0959C300.37 21.2122 299.598 19.0461 299.369 16.7883C299.141 14.5306 299.463 12.2506 300.309 10.1491H283.138C275.519 10.1491 268.212 13.2182 262.824 18.6813C257.437 24.1444 254.41 31.5539 254.41 39.2798V408.483C254.41 416.209 257.437 423.619 262.824 429.082C268.212 434.545 275.519 437.614 283.138 437.614H424.63C432.249 437.614 439.556 434.545 444.944 429.082C450.331 423.619 453.358 416.209 453.358 408.483V39.278C453.358 31.552 450.331 24.1425 444.944 18.6794C439.556 13.2163 432.249 10.1472 424.63 10.1472L424.636 10.1472Z" fill="white"/>
<path d="M354.13 416.982C362.842 416.982 369.905 409.82 369.905 400.985C369.905 392.151 362.842 384.989 354.13 384.989C345.417 384.989 338.355 392.151 338.355 400.985C338.355 409.82 345.417 416.982 354.13 416.982Z" fill="#E6E6E6"/>
<path d="M290.133 253.05C288.642 253.05 287.428 254.455 287.428 256.181C287.428 257.906 288.642 259.311 290.133 259.311H417.635C419.126 259.311 420.34 257.906 420.34 256.181C420.34 254.455 419.126 253.05 417.635 253.05H290.133Z" fill="#E6E6E6"/>
<path d="M290.133 326.88C288.642 326.88 287.428 328.284 287.428 330.01C287.428 331.736 288.642 333.141 290.133 333.141H417.635C419.126 333.141 420.34 331.736 420.34 330.01C420.34 328.284 419.126 326.88 417.635 326.88H290.133Z" fill="#E6E6E6"/>
<path d="M290.133 271.832C288.642 271.832 287.428 273.236 287.428 274.962C287.428 276.688 288.642 278.093 290.133 278.093H344.998C346.489 278.093 347.702 276.688 347.702 274.962C347.702 273.236 346.489 271.832 344.998 271.832H290.133Z" fill="#E6E6E6"/>
<path d="M290.133 289.735C288.642 289.735 287.428 291.139 287.428 292.865C287.428 294.591 288.642 295.995 290.133 295.995H417.635C419.126 295.995 420.34 294.591 420.34 292.865C420.34 291.139 419.126 289.735 417.635 289.735H290.133Z" fill="#E6E6E6"/>
<path d="M290.133 308.517C288.642 308.517 287.428 309.921 287.428 311.647C287.428 313.373 288.642 314.777 290.133 314.777H344.998C346.489 314.777 347.702 313.373 347.702 311.647C347.702 309.921 346.489 308.517 344.998 308.517H290.133Z" fill="#E6E6E6"/>
<path d="M314.203 110.515H393.573C394.45 110.516 395.29 110.87 395.91 111.499C396.53 112.127 396.879 112.98 396.88 113.869V197.688C396.879 198.577 396.53 199.429 395.91 200.058C395.29 200.687 394.45 201.04 393.573 201.041H314.203C313.326 201.04 312.486 200.687 311.866 200.058C311.246 199.429 310.897 198.577 310.896 197.688V113.869C310.897 112.979 311.246 112.127 311.866 111.498C312.486 110.87 313.326 110.516 314.203 110.515Z" fill="#004275"/>
<path d="M376.661 183.757C376.956 183.757 377.248 183.699 377.521 183.585C377.794 183.471 378.042 183.303 378.251 183.092C378.46 182.88 378.626 182.629 378.739 182.353C378.852 182.077 378.911 181.78 378.911 181.481C378.911 181.182 378.853 180.885 378.74 180.609C378.627 180.332 378.461 180.081 378.253 179.869C378.044 179.658 377.796 179.49 377.523 179.376C377.251 179.261 376.958 179.203 376.663 179.203H331.115C330.82 179.203 330.528 179.261 330.255 179.375C329.982 179.489 329.734 179.657 329.525 179.868C329.316 180.079 329.15 180.33 329.037 180.607C328.924 180.883 328.866 181.179 328.865 181.479C328.865 181.778 328.923 182.074 329.036 182.351C329.149 182.627 329.315 182.879 329.523 183.09C329.732 183.302 329.98 183.469 330.253 183.584C330.526 183.698 330.818 183.757 331.113 183.757H376.661Z" fill="white"/>
<path d="M376.661 170.343C377.256 170.343 377.828 170.103 378.249 169.676C378.67 169.249 378.906 168.67 378.906 168.066C378.906 167.462 378.67 166.883 378.249 166.456C377.828 166.029 377.256 165.79 376.661 165.79H331.115C330.52 165.789 329.949 166.029 329.527 166.456C329.106 166.882 328.869 167.461 328.869 168.065C328.869 168.669 329.105 169.248 329.526 169.675C329.947 170.102 330.518 170.343 331.113 170.343H376.661Z" fill="white"/>
<path d="M353.888 127.8C356.683 127.8 359.415 128.641 361.74 130.215C364.064 131.79 365.875 134.028 366.945 136.647C368.014 139.265 368.294 142.147 367.749 144.927C367.204 147.707 365.858 150.26 363.881 152.264C361.905 154.268 359.387 155.633 356.645 156.186C353.904 156.739 351.062 156.455 348.48 155.371C345.897 154.286 343.69 152.449 342.137 150.093C340.584 147.736 339.755 144.965 339.755 142.131C339.76 138.332 341.25 134.689 343.899 132.002C346.549 129.316 350.141 127.805 353.888 127.8Z" fill="white"/>
<path d="M173.567 273.152H131.611C130.748 273.151 129.92 272.803 129.31 272.184C128.7 271.565 128.357 270.726 128.356 269.851V251.513C128.356 244.996 130.909 238.746 135.453 234.137C139.998 229.529 146.162 226.94 152.589 226.94C159.016 226.94 165.18 229.529 169.724 234.137C174.269 238.746 176.822 244.996 176.822 251.513V269.851C176.821 270.726 176.478 271.565 175.868 272.184C175.257 272.803 174.43 273.151 173.567 273.152Z" fill="#2F2E41"/>
<path d="M172.811 262.673C177.517 253.942 174.353 242.995 165.743 238.223C157.133 233.45 146.338 236.659 141.631 245.389C136.925 254.12 140.089 265.067 148.699 269.839C157.309 274.612 168.104 271.403 172.811 262.673Z" fill="#FFB6B6"/>
<path d="M182.555 253.347H156.9L156.637 249.612L155.322 253.347H151.371L150.85 245.944L148.243 253.347H140.599V252.98C140.605 247.826 142.626 242.885 146.22 239.241C149.814 235.597 154.686 233.547 159.769 233.542H163.386C168.468 233.547 173.34 235.597 176.934 239.241C180.528 242.885 182.549 247.826 182.555 252.98V253.347Z" fill="#2F2E41"/>
<path d="M156.69 276.575C156.497 276.575 156.304 276.557 156.114 276.523L137.328 273.162V241.68H158.008L157.496 242.285C150.372 250.709 155.739 264.369 159.572 271.761C159.854 272.303 159.98 272.914 159.935 273.525C159.89 274.136 159.676 274.721 159.317 275.214C159.017 275.635 158.622 275.978 158.165 276.215C157.708 276.452 157.203 276.575 156.69 276.575Z" fill="#2F2E41"/>
<path d="M219.236 432.012L242.413 432.011H242.414C246.331 432.011 250.088 433.589 252.858 436.398C255.628 439.206 257.184 443.016 257.184 446.988V447.475L219.236 447.476L219.236 432.012Z" fill="#2F2E41"/>
<path d="M539.393 449H0.606742C0.445824 449 0.291496 448.935 0.17771 448.82C0.0639239 448.704 0 448.548 0 448.385C0 448.222 0.0639239 448.065 0.17771 447.95C0.291496 447.834 0.445824 447.77 0.606742 447.77H539.393C539.554 447.77 539.708 447.834 539.822 447.95C539.936 448.065 540 448.222 540 448.385C540 448.548 539.936 448.704 539.822 448.82C539.708 448.935 539.554 449 539.393 449Z" fill="#CACACA"/>
</g>
<defs>
<clipPath id="clip0_94_1587">
<rect width="540" height="449" fill="white"/>
</clipPath>
</defs>
</svg>
