<svg width="608" height="608" viewBox="0 0 608 608" fill="none" xmlns="http://www.w3.org/2000/svg">
<g clip-path="url(#clip0_44_1743)">
<path d="M136.365 101.637L131.729 125.652L154.839 132.082L151.968 106.443L136.365 101.637Z" fill="#A0616A"/>
<path d="M0 598.755C0 599.51 0.614211 600.116 1.37907 600.116H606.621C607.386 600.116 608 599.51 608 598.755C608 598 607.386 597.394 606.621 597.394H1.37907C0.614211 597.394 0 598 0 598.755Z" fill="#3F3D56"/>
<path d="M412.585 272.677H174.251C147.224 272.677 125.314 294.299 125.314 320.971V549.04C125.314 575.712 147.224 597.333 174.251 597.333H412.585C439.612 597.333 461.522 575.711 461.522 549.04V320.971C461.522 294.299 439.612 272.677 412.585 272.677Z" fill="white"/>
<path d="M412.585 598.476H174.251C146.628 598.476 124.155 576.299 124.155 549.04V320.971C124.155 293.712 146.628 271.534 174.251 271.534H412.585C440.208 271.534 462.681 293.712 462.681 320.971V549.04C462.681 576.299 440.208 598.476 412.585 598.476ZM174.251 273.821C147.906 273.821 126.473 294.972 126.473 320.971V549.04C126.473 575.038 147.906 596.189 174.251 596.189H412.585C438.93 596.189 460.363 575.038 460.363 549.04V320.971C460.363 294.972 438.93 273.821 412.585 273.821L174.251 273.821Z" fill="#3F3D56"/>
<path d="M429.849 371.553H334.052C329.988 371.553 326.683 368.291 326.683 364.281C326.683 360.272 329.988 357.009 334.052 357.009H429.849C433.912 357.009 437.218 360.272 437.218 364.281C437.218 368.291 433.912 371.553 429.849 371.553Z" fill="#FDAF77"/>
<path d="M339.978 428.741H246.859C244.511 428.741 242.601 426.856 242.601 424.539C242.601 422.223 244.511 420.338 246.859 420.338H339.978C342.326 420.338 344.235 422.223 344.235 424.539C344.235 426.856 342.326 428.741 339.978 428.741Z" fill="#FDAF77"/>
<path d="M208.363 288.296H155.199C155 288.296 154.839 288.455 154.839 288.651V294.759C154.839 294.955 155 295.114 155.199 295.114H208.363C208.562 295.114 208.723 294.955 208.723 294.759V288.651C208.723 288.455 208.562 288.296 208.363 288.296Z" fill="#FDAF77"/>
<path d="M387.437 295.114C390.489 295.114 392.963 292.672 392.963 289.66C392.963 286.648 390.489 284.206 387.437 284.206C384.385 284.206 381.91 286.648 381.91 289.66C381.91 292.672 384.385 295.114 387.437 295.114Z" fill="#3F3D56"/>
<path d="M402.635 295.114C405.687 295.114 408.161 292.672 408.161 289.66C408.161 286.648 405.687 284.206 402.635 284.206C399.583 284.206 397.108 286.648 397.108 289.66C397.108 292.672 399.583 295.114 402.635 295.114Z" fill="#3F3D56"/>
<path d="M417.833 295.114C420.885 295.114 423.359 292.672 423.359 289.66C423.359 286.648 420.885 284.206 417.833 284.206C414.78 284.206 412.306 286.648 412.306 289.66C412.306 292.672 414.78 295.114 417.833 295.114Z" fill="#3F3D56"/>
<path d="M173.671 451.232C173.671 451.987 174.285 452.593 175.05 452.593H411.786C412.551 452.593 413.165 451.987 413.165 451.232C413.165 450.478 412.551 449.871 411.786 449.871H175.05C174.285 449.871 173.671 450.478 173.671 451.232Z" fill="#3F3D56"/>
<path d="M245.871 115.558C250.911 111.448 257.145 110.684 259.795 113.849C262.444 117.015 260.506 122.912 255.464 127.022C253.473 128.691 251.105 129.866 248.56 130.447L226.983 147.593L219.045 137.43L241.159 121.605C242.218 119.247 243.833 117.173 245.871 115.558Z" fill="#A0616A"/>
<path d="M121.158 154.246C121.147 153.487 121.154 146.873 126.116 142.692C131.817 137.89 139.86 139.833 142.681 140.515C149.198 142.09 149.732 144.849 155.852 147.684C167.302 152.987 152.956 150.272 159.769 148.572C162.127 147.983 196.054 145.661 204.499 140.532C220.924 130.556 232.115 124.506 232.115 124.506L239.431 138.946C239.431 138.946 228.852 153.462 213.963 164.216C198.691 175.247 191.054 180.762 179.449 182.893C178.45 183.077 153.871 187.218 134.075 172.623C129.56 169.294 121.287 163.194 121.158 154.246Z" fill="#E6E6E6"/>
<path d="M143.852 117.523C157.927 117.523 169.338 106.263 169.338 92.3725C169.338 78.4823 157.927 67.222 143.852 67.222C129.777 67.222 118.367 78.4823 118.367 92.3725C118.367 106.263 129.777 117.523 143.852 117.523Z" fill="#A0616A"/>
<path d="M343.446 261.343L317.199 234.83L303.651 248.777L323.205 274.199L342.602 276.388L343.446 261.343Z" fill="#A0616A"/>
<path d="M193.576 211.625C195.112 211.751 199.99 212.715 204.653 210.184C207.835 208.456 209.467 205.887 210.019 205.07C216.857 194.934 243.106 179.128 266.663 178.155C271.998 177.935 275.509 178.545 278.701 180.187C283.226 182.515 285.033 185.85 290.776 193.662C293.917 197.935 297.393 201.961 300.573 206.206C319.186 231.064 326.242 233.015 325.52 240.984C324.72 249.826 315.057 258.215 308.635 257.246C306.005 256.85 304.986 255.045 301.472 251.391C291.169 240.678 286.906 242.658 279.571 234.452C271.007 224.872 272.128 216.929 267.659 216.622C263.516 216.338 261.755 223.114 252.909 232.116C248.861 236.235 245.978 238.124 237.197 244.136C202.999 267.549 202.453 269.194 195.552 271.062C192.532 271.879 171.101 277.677 163.467 268.45C151.52 254.01 179.744 210.491 193.576 211.625Z" fill="#004275"/>
<path d="M335.422 267.335C337.352 266.479 339.609 265.479 340.335 263.179C340.827 261.623 340.544 259.704 339.528 258.378C338.356 256.848 336.622 256.646 336.692 256.376C336.799 255.963 340.9 256.125 345.403 257.695C346.253 257.992 350.102 259.38 354.998 263.152C358.921 266.174 358.393 266.78 360.853 268.523C368.405 273.872 375.487 269.656 379.573 274.673C381.15 276.609 381.823 279.358 381.159 281.581C379.826 286.045 373.345 287.581 369.803 288.374C361.272 290.284 354.816 288.725 348.073 287.603C325.144 283.791 312.261 287.263 310.537 282.021C310.21 281.029 310.741 281.113 312.509 273.833C314.254 266.646 314.196 264.673 315.682 264.098C317.919 263.231 319.421 267.172 325.057 268.52C330.05 269.715 334.171 267.889 335.422 267.335Z" fill="#004275"/>
<path d="M296.783 348.079L290.152 311.595L271.005 315.628L272.72 347.499L287.524 360.059L296.783 348.079Z" fill="#A0616A"/>
<path d="M201.065 223.888C202.263 224.843 205.751 228.345 211.05 228.834C214.666 229.167 217.479 227.946 218.4 227.575C229.826 222.978 260.539 224.445 280.585 236.695C285.125 239.469 287.683 241.919 289.39 245.047C291.81 249.481 291.407 253.241 291.714 262.888C291.882 268.165 292.467 273.422 292.682 278.697C293.939 309.58 298.667 315.104 293.536 321.299C287.843 328.172 275.074 329.758 270.311 325.398C268.36 323.612 268.544 321.554 267.716 316.584C265.286 302.01 260.633 301.285 259.232 290.431C257.596 277.758 263.044 271.807 259.521 269.077C256.255 266.545 250.942 271.176 238.5 273.723C232.806 274.888 229.346 274.854 218.659 274.962C177.04 275.384 175.652 276.443 168.879 274.164C165.915 273.166 144.883 266.088 143.816 254.222C142.147 235.654 190.264 215.284 201.065 223.888Z" fill="#004275"/>
<path d="M286.735 348.589C288.819 348.951 291.255 349.374 293.165 347.874C294.457 346.858 295.315 345.114 295.229 343.454C295.13 341.538 293.81 340.41 294.022 340.225C294.345 339.943 297.647 342.349 300.479 346.144C301.013 346.86 303.408 350.142 305.313 355.977C306.84 360.651 306.058 360.86 307.102 363.666C310.306 372.277 318.566 372.713 319.092 379.128C319.295 381.604 318.288 384.251 316.474 385.723C312.831 388.678 306.594 386.357 303.212 385.051C295.066 381.904 290.611 377.036 285.67 372.372C268.867 356.51 256.231 352.245 257.787 346.951C258.081 345.95 258.472 346.313 264.078 341.269C269.611 336.289 270.686 334.625 272.243 334.972C274.587 335.495 273.588 339.588 277.484 343.826C280.936 347.582 285.384 348.355 286.735 348.589Z" fill="#004275"/>
<path d="M147.327 97.1806C148.319 93.6781 147.073 92.4017 148.343 90.8296C148.343 90.8295 148.854 90.1969 153.424 88.4898C152.075 80.7701 153.085 79.4647 153.085 79.4647C154.248 77.9603 156.579 77.5966 158.166 77.7934C161.521 78.2096 162.115 81.2032 164.263 81.136C167.229 81.0432 170.786 75.1838 169.682 70.1054C168.781 65.9627 164.897 62.8863 163.924 63.4201C162.959 63.9494 159.484 61.6154 158.166 62.0831C157.266 62.4024 153.029 61.9776 152.069 62.4173C151.02 62.8976 148.016 65.8879 147.728 65.5111C145.732 62.8929 145.775 61.9788 144.617 61.4145C142.565 60.4147 140.334 62.2628 136.488 64.0886C128.574 67.8454 126.256 65.6044 122.601 68.7683C120.754 70.3665 119.764 73.421 117.858 79.4647C115.194 87.9167 113.862 92.1427 115.149 96.1778C116.461 100.293 118.393 99.3972 121.246 105.203C124.421 111.666 123.326 115.422 126.326 116.902C128.645 118.046 132.371 117.318 133.778 115.231C136.187 111.657 129.961 106.823 132.085 101.192C133.388 97.7348 137.409 95.1136 139.875 95.8435C142.663 96.6688 142.869 101.602 144.617 101.526C146.114 101.461 147.154 97.7909 147.327 97.1806Z" fill="#004275"/>
<path d="M128.02 121.247C133.235 115.477 154.478 121.45 156.472 130.607C157.292 134.373 154.265 135.964 155.117 140.3C156.364 146.643 163.425 146.211 168.666 152.668C176.106 161.835 168.441 170.796 176.795 186.094C178.58 189.363 180.085 192.119 183.231 194.785C190.45 200.904 197.168 198.806 200.844 204.479C203.593 208.721 202.463 213.95 202.199 215.175C201.114 220.198 198.174 221.422 196.102 225.537C192.655 232.385 196.558 237.412 196.779 245.593C197.057 255.829 191.544 270.018 180.521 274.674C168.137 279.904 153.2 271.241 145.972 262.64C141.659 257.508 140.407 252.773 138.52 246.93C130.087 220.813 125.323 223.176 118.875 202.473C111.503 178.806 110.053 151.08 118.875 142.306C120.044 141.143 123.262 138.455 125.31 133.615C128.067 127.102 125.685 123.831 128.02 121.247Z" fill="#E6E6E6"/>
<path d="M205.081 255.581C209.124 260.651 209.751 266.819 206.481 269.358C203.211 271.897 197.284 269.845 193.24 264.773C191.596 262.768 190.463 260.405 189.934 257.88L173.077 236.185L181.787 229.628L199.067 250.788C201.431 251.889 203.493 253.532 205.081 255.581Z" fill="#A0616A"/>
<path d="M143.343 143.24C144.093 143.075 150.657 141.732 155.816 145.673C161.744 150.2 161.456 158.367 161.356 161.231C161.123 167.848 158.496 168.928 156.932 175.419C154.008 187.562 159.577 198.848 162.654 205.082C163.72 207.241 167.142 213.845 173.953 220.957C187.201 234.789 199.021 242.067 199.021 242.067L186.323 253.206C186.323 253.206 166.096 247.122 152.39 234.932C138.331 222.429 116.71 178.189 112.228 167.412C111.842 166.484 117.31 181.572 127.749 159.469C130.13 154.428 134.493 145.19 143.343 143.24Z" fill="#E6E6E6"/>
<path d="M317.454 482.385C309.383 483.606 303.479 488.706 304.267 493.775C305.055 498.844 312.236 501.962 320.31 500.739C323.542 500.295 326.619 499.093 329.284 497.234L363.416 491.635L361.138 478.321L327.083 483.076C323.975 482.09 320.673 481.854 317.454 482.385Z" fill="#FFB6B6"/>
<path d="M464.537 440.883L451.303 468.598L384.769 490.701L329.56 493.608L328.177 480.522L388.011 468.175L449.409 439.543L464.537 440.883Z" fill="#E6E6E6"/>
<path d="M341.825 546.117L329.943 575.777L314.566 565.43L323.652 534.391L341.825 546.117Z" fill="#FFB6B6"/>
<path d="M292.199 535.081L260.746 564.74L273.328 577.846L305.479 553.015L292.199 535.081Z" fill="#FFB6B6"/>
<path d="M470.432 438.514L470.083 436.1L462.045 420.58L435.485 427.478L440.377 448.86L470.432 438.514Z" fill="#FFB6B6"/>
<path d="M459.249 541.978L460.066 552.338C460.066 552.338 463.443 595.78 436.183 599.229C408.924 602.678 397.042 606.126 380.966 579.226L355.804 535.081L341.107 552.338L321.555 537.15C321.555 537.15 335.534 483.349 346.717 481.279C348.115 481.021 349.513 480.891 350.889 480.863C360.148 480.673 368.875 485.142 374.414 492.465L406.128 534.391L417.661 529.218L459.249 541.978Z" fill="#004275"/>
<path d="M308.275 574.397L314.566 562.671L332.739 575.087C332.739 575.087 336.932 590.262 330.642 592.331C324.351 594.4 306.877 591.641 306.877 591.641C306.877 591.641 274.725 598.539 274.027 592.331C273.328 586.123 288.705 584.744 288.705 584.744L308.275 574.397Z" fill="#004275"/>
<path d="M376.773 566.12L328.195 535.914L303.383 557.843L286.608 538.53C286.608 538.53 317.362 493.695 326.448 491.626C335.534 489.556 350.212 488.177 350.212 488.177L394.945 528.873L376.773 566.12Z" fill="#004275"/>
<path d="M260.047 561.981L276.123 579.225L274.003 581.015C274.003 581.015 269.833 598.941 260.047 592.877C250.262 586.813 249.563 585.433 249.563 585.433C249.563 585.433 221.605 591.641 218.809 580.605C216.013 569.569 223.702 571.638 223.702 571.638L230.683 575.777L260.047 561.981Z" fill="#004275"/>
<path d="M443.872 435.065C456.225 435.065 466.239 425.183 466.239 412.993C466.239 400.803 456.225 390.92 443.872 390.92C431.519 390.92 421.506 400.803 421.506 412.993C421.506 425.183 431.519 435.065 443.872 435.065Z" fill="#FFB6B6"/>
<path d="M438.63 444.377L470.782 434.72C470.782 434.72 483.363 463.69 481.266 476.796C479.169 489.901 460.066 552.338 460.066 552.338L417.661 529.218C417.661 529.218 416.962 515.422 414.865 509.215C412.769 503.007 406.129 484.038 420.807 468.174C435.485 452.309 438.63 444.377 438.63 444.377Z" fill="#E6E6E6"/>
<path d="M367.866 589.214C362.633 595.401 361.626 603.08 365.616 606.365C369.606 609.651 377.081 607.299 382.315 601.11C384.44 598.666 385.941 595.755 386.692 592.621L408.527 566.133L397.891 557.639L375.548 583.444C372.557 584.734 369.923 586.713 367.866 589.214Z" fill="#FFB6B6"/>
<path d="M463.292 458.293L470.891 487.999L433.696 546.755L395.726 584.415L383.419 574.339L421.713 527.318L450.739 466.734L463.292 458.293Z" fill="#E6E6E6"/>
<path d="M423.253 409.199C428.989 409.186 429.315 409.223 430.242 409.199C437.357 409.014 439.217 406.252 442.823 406.44C449.26 406.776 440.765 438.622 437.232 453.344C433.767 467.783 445.477 480.721 446.318 481.624C458.204 494.381 479.081 496.713 482.664 491.281C485.563 486.884 475.287 480.198 477.771 470.588C480.199 461.194 491.412 462.194 494.546 453.344C497.828 444.076 486.798 439.401 479.868 416.787C475.888 403.799 476.592 401.379 472.878 393.335C462.952 371.833 414.296 380.988 419.758 400.922C420.815 404.778 418.003 409.212 423.253 409.199Z" fill="#004275"/>
<path d="M494.674 147.171H259.606C252.959 147.171 247.551 141.834 247.551 135.274V12.0481C247.551 5.48825 252.959 0.150757 259.606 0.150757H494.674C501.322 0.150757 506.73 5.48824 506.73 12.0481V135.274C506.73 141.834 501.322 147.171 494.674 147.171Z" fill="white"/>
<path d="M494.674 147.171H259.606C252.959 147.171 247.551 141.834 247.551 135.274V12.0481C247.551 5.48825 252.959 0.150757 259.606 0.150757H494.674C501.322 0.150757 506.73 5.48824 506.73 12.0481V135.274C506.73 141.834 501.322 147.171 494.674 147.171ZM259.606 2.13752C254.069 2.13752 249.564 6.58349 249.564 12.0481V135.274C249.564 140.739 254.069 145.185 259.606 145.185H494.674C500.212 145.185 504.717 140.739 504.717 135.274V12.0481C504.717 6.58349 500.212 2.13752 494.674 2.13752H259.606Z" fill="#3F3D56"/>
<path d="M476.532 15.0515C478.2 15.0515 479.552 13.7172 479.552 12.0713C479.552 10.4255 478.2 9.0912 476.532 9.0912C474.864 9.0912 473.512 10.4255 473.512 12.0713C473.512 13.7172 474.864 15.0515 476.532 15.0515Z" fill="#3F3D56"/>
<path d="M484.585 15.0515C486.252 15.0515 487.604 13.7172 487.604 12.0713C487.604 10.4255 486.252 9.0912 484.585 9.0912C482.917 9.0912 481.565 10.4255 481.565 12.0713C481.565 13.7172 482.917 15.0515 484.585 15.0515Z" fill="#3F3D56"/>
<path d="M492.638 15.0515C494.305 15.0515 495.657 13.7172 495.657 12.0713C495.657 10.4255 494.305 9.0912 492.638 9.0912C490.97 9.0912 489.618 10.4255 489.618 12.0713C489.618 13.7172 490.97 15.0515 492.638 15.0515Z" fill="#3F3D56"/>
<path d="M264.663 60.2504C263.83 60.2504 263.153 60.9188 263.153 61.7404C263.153 62.1411 263.31 62.5117 263.594 62.7852C263.881 63.0753 264.257 63.2305 264.663 63.2305H490.624C491.457 63.2305 492.134 62.5621 492.134 61.7404C492.134 61.3398 491.977 60.9692 491.693 60.6956C491.406 60.4056 491.03 60.2504 490.624 60.2504H264.663Z" fill="#E6E6E6"/>
<path d="M462.439 59.7537V63.7272H264.663C264.109 63.7272 263.606 63.5086 263.244 63.1411C262.871 62.7835 262.65 62.2868 262.65 61.7404C262.65 60.6477 263.556 59.7537 264.663 59.7537H462.439Z" fill="#FDAF77"/>
<path d="M488.108 52.3033H467.975C465.755 52.3033 463.949 50.5212 463.949 48.3298C463.949 46.1383 465.755 44.3562 467.975 44.3562H488.108C490.328 44.3562 492.134 46.1383 492.134 48.3298C492.134 50.5212 490.328 52.3033 488.108 52.3033Z" fill="#E6E6E6"/>
<path d="M356.241 31.4423H266.173C263.953 31.4423 262.147 29.6602 262.147 27.4688C262.147 25.2773 263.953 23.4952 266.173 23.4952H356.241C358.461 23.4952 360.267 25.2773 360.267 27.4688C360.267 29.6602 358.461 31.4423 356.241 31.4423Z" fill="#E6E6E6"/>
<path d="M264.663 104.953C263.83 104.953 263.153 105.621 263.153 106.443C263.153 106.843 263.31 107.214 263.594 107.487C263.881 107.777 264.257 107.933 264.663 107.933H490.624C491.457 107.933 492.134 107.264 492.134 106.443C492.134 106.042 491.977 105.671 491.693 105.398C491.406 105.108 491.03 104.953 490.624 104.953H264.663Z" fill="#E6E6E6"/>
<path d="M384.929 104.456V108.429H264.663C264.109 108.429 263.606 108.211 263.244 107.843C262.871 107.486 262.65 106.989 262.65 106.443C262.65 105.35 263.556 104.456 264.663 104.456H384.929Z" fill="#FDAF77"/>
<path d="M488.108 97.0055H467.975C465.755 97.0055 463.949 95.2234 463.949 93.032C463.949 90.8405 465.755 89.0584 467.975 89.0584H488.108C490.328 89.0584 492.134 90.8405 492.134 93.032C492.134 95.2234 490.328 97.0055 488.108 97.0055Z" fill="#E6E6E6"/>
</g>
<defs>
<clipPath id="clip0_44_1743">
<rect width="608" height="607.698" fill="white" transform="translate(0 0.150757)"/>
</clipPath>
</defs>
</svg>
