<svg width="239" height="27" viewBox="0 0 239 27" fill="none" xmlns="http://www.w3.org/2000/svg">
<path d="M0.16 26.5V1.3H5.56V21.1H15.46V26.5H0.16ZM29.1569 26.968C27.4529 26.968 25.8509 26.632 24.3509 25.96C22.8509 25.276 21.5309 24.334 20.3909 23.134C19.2509 21.934 18.3569 20.548 17.7089 18.976C17.0609 17.392 16.7369 15.7 16.7369 13.9C16.7369 12.1 17.0609 10.414 17.7089 8.842C18.3569 7.258 19.2509 5.866 20.3909 4.666C21.5309 3.466 22.8509 2.53 24.3509 1.858C25.8509 1.174 27.4529 0.831998 29.1569 0.831998C30.8729 0.831998 32.4809 1.174 33.9809 1.858C35.4809 2.53 36.8009 3.466 37.9409 4.666C39.0809 5.866 39.9689 7.258 40.6049 8.842C41.2529 10.414 41.5769 12.1 41.5769 13.9C41.5769 15.7 41.2529 17.392 40.6049 18.976C39.9689 20.548 39.0809 21.934 37.9409 23.134C36.8009 24.334 35.4809 25.276 33.9809 25.96C32.4809 26.632 30.8729 26.968 29.1569 26.968ZM29.1569 21.568C30.1169 21.568 31.0169 21.37 31.8569 20.974C32.7089 20.566 33.4589 20.014 34.1069 19.318C34.7549 18.61 35.2589 17.794 35.6189 16.87C35.9909 15.946 36.1769 14.956 36.1769 13.9C36.1769 12.844 35.9909 11.854 35.6189 10.93C35.2589 10.006 34.7549 9.196 34.1069 8.5C33.4589 7.792 32.7089 7.24 31.8569 6.844C31.0169 6.436 30.1169 6.232 29.1569 6.232C28.1969 6.232 27.2909 6.436 26.4389 6.844C25.5989 7.24 24.8549 7.792 24.2069 8.5C23.5589 9.196 23.0489 10.006 22.6769 10.93C22.3169 11.854 22.1369 12.844 22.1369 13.9C22.1369 14.956 22.3169 15.946 22.6769 16.87C23.0489 17.794 23.5589 18.61 24.2069 19.318C24.8549 20.014 25.5989 20.566 26.4389 20.974C27.2909 21.37 28.1969 21.568 29.1569 21.568ZM44.6327 26.5V1.3H54.8927C56.2727 1.3 57.5207 1.648 58.6367 2.344C59.7527 3.04 60.6347 3.976 61.2827 5.152C61.9427 6.316 62.2727 7.6 62.2727 9.004C62.2727 10.084 62.0927 11.092 61.7327 12.028C61.3727 12.952 60.8567 13.774 60.1847 14.494C59.5247 15.202 58.7447 15.772 57.8447 16.204L63.8207 26.5H57.5927L51.9047 16.708H50.0327V26.5H44.6327ZM50.0327 11.308H54.2447C54.7247 11.308 55.1627 11.188 55.5587 10.948C55.9547 10.696 56.2727 10.366 56.5127 9.958C56.7527 9.55 56.8727 9.1 56.8727 8.608C56.8727 8.116 56.7527 7.666 56.5127 7.258C56.2727 6.85 55.9547 6.526 55.5587 6.286C55.1627 6.034 54.7247 5.908 54.2447 5.908H50.0327V11.308ZM66.7108 26.5V1.3H82.7668V6.7H72.1108V10.3H80.3188V15.7H72.1108V21.1H82.7668V26.5H66.7108ZM86.7147 26.5L91.6107 1.3H96.2187L101.871 16.168L107.523 1.3H112.131L117.027 26.5H111.519L108.891 12.892L103.743 26.5H99.9987L94.8507 12.892L92.2227 26.5H86.7147ZM130.532 26.5V1.3H135.932V26.5H130.532ZM140.785 26.5V1.3H150.289C151.669 1.3 152.917 1.654 154.033 2.362C155.161 3.058 156.055 3.994 156.715 5.17C157.375 6.334 157.705 7.612 157.705 9.004C157.705 10.42 157.363 11.71 156.679 12.874C156.007 14.038 155.107 14.968 153.979 15.664C152.851 16.36 151.621 16.708 150.289 16.708H146.185V26.5H140.785ZM146.185 11.308H149.677C150.157 11.308 150.595 11.188 150.991 10.948C151.387 10.696 151.705 10.366 151.945 9.958C152.185 9.55 152.305 9.1 152.305 8.608C152.305 8.116 152.185 7.666 151.945 7.258C151.705 6.85 151.387 6.526 150.991 6.286C150.595 6.034 150.157 5.908 149.677 5.908H146.185V11.308ZM170.532 26.968C169.116 26.968 167.76 26.746 166.464 26.302C165.168 25.846 164.034 25.198 163.062 24.358C162.09 23.506 161.388 22.492 160.956 21.316L166.032 19.444C166.152 19.792 166.416 20.128 166.824 20.452C167.244 20.776 167.772 21.046 168.408 21.262C169.044 21.466 169.752 21.568 170.532 21.568C171.252 21.568 171.93 21.466 172.566 21.262C173.202 21.046 173.718 20.752 174.114 20.38C174.51 20.008 174.708 19.576 174.708 19.084C174.708 18.58 174.498 18.166 174.078 17.842C173.67 17.506 173.142 17.242 172.494 17.05C171.858 16.846 171.204 16.696 170.532 16.6C168.708 16.336 167.07 15.904 165.618 15.304C164.178 14.692 163.038 13.852 162.198 12.784C161.37 11.716 160.956 10.36 160.956 8.716C160.956 7.144 161.4 5.77 162.288 4.594C163.176 3.406 164.346 2.482 165.798 1.822C167.262 1.162 168.84 0.831998 170.532 0.831998C171.948 0.831998 173.304 1.06 174.6 1.516C175.908 1.96 177.048 2.608 178.02 3.46C178.992 4.312 179.688 5.332 180.108 6.52L175.032 8.356C174.912 8.008 174.642 7.678 174.222 7.366C173.814 7.042 173.292 6.778 172.656 6.574C172.02 6.37 171.312 6.268 170.532 6.268C169.836 6.256 169.17 6.358 168.534 6.574C167.898 6.79 167.376 7.084 166.968 7.456C166.56 7.828 166.356 8.248 166.356 8.716C166.356 9.364 166.548 9.85 166.932 10.174C167.316 10.486 167.82 10.708 168.444 10.84C169.08 10.972 169.776 11.092 170.532 11.2C172.26 11.452 173.85 11.902 175.302 12.55C176.754 13.198 177.918 14.062 178.794 15.142C179.67 16.222 180.108 17.536 180.108 19.084C180.108 20.656 179.664 22.036 178.776 23.224C177.9 24.4 176.736 25.318 175.284 25.978C173.832 26.638 172.248 26.968 170.532 26.968ZM194.322 26.968C192.306 26.968 190.524 26.476 188.976 25.492C187.44 24.508 186.234 23.188 185.358 21.532C184.494 19.864 184.062 18.016 184.062 15.988V1.3H189.462V15.988C189.462 17.008 189.654 17.944 190.038 18.796C190.422 19.636 190.974 20.308 191.694 20.812C192.426 21.316 193.302 21.568 194.322 21.568C195.354 21.568 196.23 21.322 196.95 20.83C197.67 20.326 198.216 19.654 198.588 18.814C198.96 17.962 199.146 17.02 199.146 15.988V1.3H204.546V15.988C204.546 17.512 204.3 18.94 203.808 20.272C203.316 21.592 202.614 22.756 201.702 23.764C200.79 24.772 199.71 25.558 198.462 26.122C197.214 26.686 195.834 26.968 194.322 26.968ZM208.355 26.5L213.251 1.3H217.859L223.511 16.168L229.163 1.3H233.771L238.667 26.5H233.159L230.531 12.892L225.383 26.5H221.639L216.491 12.892L213.863 26.5H208.355Z" fill="#004275"/>
</svg>
